<svg xmlns="http://www.w3.org/2000/svg" viewBox="0 0 48 48"><defs><style>.cls-1{fill:#005faf;}</style></defs><title>Ресурс 1</title><g id="Слой_2" data-name="Слой 2"><g id="Слой_1-2" data-name="Слой 1"><path class="cls-1" d="M24,0A24,24,0,1,0,48,24,24,24,0,0,0,24,0Zm0,46A22,22,0,1,1,46,24,22,22,0,0,1,24,46Z"/><path class="cls-1" d="M24,10a1,1,0,0,0,1-1V7a1,1,0,0,0-2,0V9A1,1,0,0,0,24,10Z"/><path class="cls-1" d="M41,23H39a1,1,0,0,0,0,2h2a1,1,0,0,0,0-2Z"/><path class="cls-1" d="M9,23H7a1,1,0,0,0,0,2H9a1,1,0,0,0,0-2Z"/><path class="cls-1" d="M33.9,32.49a1,1,0,0,0-1.41,1.41l2.82,2.83a1,1,0,0,0,1.41,0h0a1,1,0,0,0,0-1.41h0Z"/><path class="cls-1" d="M14.1,15.51a1,1,0,1,0,1.41-1.41l-2.82-2.83a1,1,0,0,0-1.42,1.42Z"/><path class="cls-1" d="M35.31,11.27,32.49,14.1a1,1,0,1,0,1.3,1.52l.11-.11,2.83-2.82a1,1,0,0,0-1.42-1.42Z"/><path class="cls-1" d="M14.1,32.49l-2.83,2.82a1,1,0,0,0,0,1.41h0a1,1,0,0,0,1.41,0h0l2.82-2.83a1,1,0,0,0-1.41-1.41Z"/><path class="cls-1" d="M24,14a10,10,0,0,0-5,18.66V39a2,2,0,0,0,2,2h.18a3,3,0,0,0,5.64,0H27a2,2,0,0,0,2-2V32.66A10,10,0,0,0,24,14ZM21,35h6v1H21Zm0,4V38h6v1Zm7-8.07a2,2,0,0,0-1,1.73V33H21v-.34a2,2,0,0,0-1-1.73,8,8,0,1,1,8,0Z"/><path class="cls-1" d="M26.29,21.29,24,23.59l-2.29-2.3a1,1,0,0,0-1.42,1.42L23,25.41V30a1,1,0,0,0,2,0V25.41l2.71-2.7a1,1,0,0,0-1.42-1.42Z"/><circle class="cls-1" cx="24" cy="20" r="1"/></g></g></svg>